<?xml version="1.0" encoding="utf-8"?>
<!-- Generator: Adobe Illustrator 24.2.3, SVG Export Plug-In . SVG Version: 6.00 Build 0)  -->
<svg version="1.1" id="abd5c76d-7219-42bc-94fd-ab97f702b65a"
	 xmlns="http://www.w3.org/2000/svg" xmlns:xlink="http://www.w3.org/1999/xlink" x="0px" y="0px" viewBox="0 0 567.2 517.3"
	 style="enable-background:new 0 0 567.2 517.3;" xml:space="preserve">
<style type="text/css">
	.st0{fill:#3F3D56;}
	.st1{fill:#191919;}
	.st2{fill:#CCCCCC;}
	.st3{fill:#88888C;}
</style>
<path class="st0" d="M70.3,384.5l-70-240.4c-1.1-3.7,1.1-7.6,4.8-8.7L468.8,0.3c3.7-1.1,7.6,1.1,8.7,4.8l62.1,213l-1.9,0.6
	l-62.1-213c-0.8-2.6-3.5-4.2-6.2-3.4L5.6,137.3c-2.7,0.8-4.2,3.5-3.4,6.2l70,240.4L70.3,384.5z"/>
<path class="st1" d="M416.9,100c-2.9,0-5.4-1.9-6.2-4.7L398.9,55c-1-3.4,1-7.1,4.4-8.1l40.3-11.7c3.4-1,7.1,1,8.1,4.4L463.4,80
	c1,3.4-1,7.1-4.4,8.1l-40.3,11.7C418.1,99.9,417.5,100,416.9,100z"/>
<path class="st2" d="M350.7,202.9c-0.9-3.2-4.2-5.1-7.4-4.2c0,0,0,0,0,0l-66.4,18.6l-7.1,2h44.9l7.1-2l24.8-6.9
	C349.7,209.5,351.6,206.2,350.7,202.9z"/>
<path class="st2" d="M303.7,189.1c-0.9-3.2-4.2-5.1-7.5-4.2l-99.6,27.9c-2.9,0.8-4.7,3.6-4.4,6.6h25.8l7.2-2l74.3-20.8
	C302.7,195.6,304.6,192.3,303.7,189.1z"/>
<path class="st0" d="M560.2,217.3h-483c-3.9,0-7,3.1-7,7v286c0,3.9,3.1,7,7,7h483c3.9,0,7-3.1,7-7v-286
	C567.2,220.4,564,217.3,560.2,217.3z M565.2,510.3c0,2.8-2.2,5-5,5h-483c-2.8,0-5-2.2-5-5v-286c0-2.8,2.2-5,5-5h483c2.8,0,5,2.2,5,5
	V510.3z"/>
<path class="st3" d="M400.3,403.1H270.9c-3.3,0-6-2.7-6-6s2.7-6,6-6h129.4c3.3,0,6,2.7,6,6S403.7,403.1,400.3,403.1z"/>
<path class="st3" d="M418.4,373.3H252.8c-11.9,0-21.6-9.7-21.6-21.6c0-11.9,9.7-21.6,21.6-21.6h165.6c11.9,0,21.6,9.7,21.6,21.6
	C440,363.6,430.3,373.3,418.4,373.3z"/>
</svg>
