<?xml version="1.0" encoding="utf-8"?>
<!-- Generator: Adobe Illustrator 24.2.3, SVG Export Plug-In . SVG Version: 6.00 Build 0)  -->
<svg version="1.1" id="b2cac8c7-99a7-498b-9b00-d1bcd66eb524"
	 xmlns="http://www.w3.org/2000/svg" xmlns:xlink="http://www.w3.org/1999/xlink" x="0px" y="0px" viewBox="0 0 856.7 690.6"
	 style="enable-background:new 0 0 856.7 690.6;" xml:space="preserve">
<style type="text/css">
	.st0{fill:#E6E6E6;}
	.st1{fill:#CCCCCC;}
	.st2{fill:#3F3D56;}
	.st3{fill:#2A2A2B;}
	.st4{fill:#2F2E41;}
	.st5{fill:#D0CDE1;}
	.st6{opacity:0.1;enable-background:new    ;}
	.st7{fill:#FFB8B8;}
</style>
<circle class="st0" cx="241.2" cy="362" r="97.2"/>
<path class="st1" d="M214.9,503.9l23.9,14.8V418.6L212,402c-2.2-1.4-3.8-3.5-4.5-6l0,0c2.6-0.5,5.2,0,7.4,1.4l23.9,14.8v-38.8
	c0-7.5,0.9-15,2.7-22.3c1.8,7.3,2.7,14.8,2.7,22.3v63.4l35.3-21.9c2.8-1.7,6.1-2.6,9.4-2.6c-1.4,3-3.7,5.5-6.5,7.3l-38.2,23.6V680
	h-5.5V525.2L212,508.6c-2.2-1.4-3.8-3.5-4.5-6l0,0C210,502.1,212.7,502.6,214.9,503.9z"/>
<circle class="st0" cx="97.2" cy="370.2" r="97.2"/>
<path class="st1" d="M123.5,512.2L99.6,527V426.9l26.8-16.6c2.2-1.4,3.8-3.5,4.5-6l0,0c-2.6-0.5-5.2,0-7.4,1.4l-23.9,14.8v-38.8
	c0-7.5-0.9-15-2.7-22.3c-1.8,7.3-2.7,14.8-2.7,22.3v63.4l-35.3-21.9c-2.8-1.7-6.1-2.6-9.4-2.6c1.4,3,3.7,5.5,6.5,7.3l38.2,23.6
	v229.1h5.5V533.5l26.8-16.6c2.2-1.4,3.8-3.5,4.5-6l0,0C128.3,510.3,125.7,510.8,123.5,512.2z"/>
<circle class="st0" cx="167.8" cy="167.4" r="167.4"/>
<path class="st1" d="M213,411.7l-41.2,25.5V264.8l46.1-28.6c3.8-2.4,6.6-6.1,7.8-10.4l0,0h0c-4.4-0.8-9,0-12.8,2.4l-41.2,25.5v-66.9
	c0-12.9-1.6-25.8-4.7-38.4c-3.1,12.5-4.7,25.4-4.7,38.4V296l-60.7-37.6c-4.8-3-10.5-4.6-16.2-4.5c2.5,5.1,6.3,9.5,11.2,12.5
	l65.7,40.7v373.8h9.4V448.4l46.1-28.6c3.8-2.4,6.6-6.1,7.8-10.4l0,0h0C221.4,408.5,216.8,409.4,213,411.7z"/>
<rect x="66.7" y="680" class="st2" width="790" height="2"/>
<rect x="622.4" y="310.2" transform="matrix(0.866 -0.5 0.5 0.866 -80.0143 367.0966)" class="st3" width="45.3" height="45.3"/>
<path class="st4" d="M653.8,372L630.2,331l40.9-23.6l23.6,40.9L653.8,372z M632.9,331.7l21.6,37.5l37.5-21.6l-21.6-37.5L632.9,331.7
	z"/>
<circle class="st5" cx="617.1" cy="463" r="19"/>
<path class="st4" d="M631.1,483c-11,0-20-9-20-20s9-20,20-20s20,9,20,20S642.2,483,631.1,483z M631.1,445c-9.9,0-18,8.1-18,18
	s8.1,18,18,18s18-8.1,18-18S641,445,631.1,445z"/>
<path class="st3" d="M737,684.5H553c-4.7,0-8.5-3.8-8.5-8.5V505c0-4.7,3.8-8.5,8.5-8.5h184c4.7,0,8.5,3.8,8.5,8.5v171
	C745.5,680.7,741.7,684.5,737,684.5z"/>
<path class="st2" d="M658,690.6h-26c-4.7,0-8.5-3.8-8.5-8.5V500c0-4.7,3.8-8.5,8.5-8.5h26c4.7,0,8.5,3.8,8.5,8.5v182.1
	C666.5,686.7,662.7,690.5,658,690.6z"/>
<path class="st2" d="M785.9,479.6c-1.1,17.6-24.9,30.5-24.9,30.5s-22.1-15.7-21-33.3s24.9-30.5,24.9-30.5S786.9,462,785.9,479.6z"/>
<path class="st2" d="M786.9,534.7c-17.6-1-30.6-24.8-30.6-24.8s15.6-22.1,33.3-21.1s30.6,24.8,30.6,24.8S804.6,535.7,786.9,534.7z"
	/>
<polygon class="st6" points="745,517.5 745,582.7 680,497 729.5,497 "/>
<path class="st3" d="M800.1,629.2c-2.7,0-5.2-1.2-6.8-3.4L658,447.3c-2.8-3.7-2.1-9.1,1.6-11.9l0,0l19.9-15.1
	c3.7-2.8,9.1-2.1,11.9,1.6c0,0,0,0,0,0l135.3,178.5c2.8,3.7,2.1,9.1-1.6,11.9l0,0l-19.9,15.1C803.7,628.6,801.9,629.2,800.1,629.2z"
	/>
<rect x="720.3" y="499.1" transform="matrix(0.7971 -0.6039 0.6039 0.7971 -163.8515 553.624)" class="st2" width="43" height="43"/>
<rect x="563" y="365" transform="matrix(0.2588 -0.9659 0.9659 0.2588 59.6767 852.9687)" class="st5" width="45.3" height="45.3"/>
<path class="st4" d="M583.1,421.9l-45.7-12.2l12.2-45.7l45.7,12.2L583.1,421.9z M539.9,408.2l41.8,11.2l11.2-41.8l-41.8-11.2
	L539.9,408.2z"/>
<path class="st7" d="M390.7,528c4.5-4.3,4.7-11.6,0.3-16.1c-0.5-0.5-1-0.9-1.5-1.3l-18.4-148l-23.7,7.1l25.6,144.1
	c-3.4,5.3-1.8,12.4,3.6,15.8C381.1,532.3,387,531.7,390.7,528z"/>
<polygon class="st7" points="412.7,669.5 426.6,669.5 433.2,616 412.7,616 "/>
<path class="st4" d="M453.4,682.4h-43.6l0,0v-16.9l0,0h28.3c8.5,0,15.3,6.9,15.3,15.3v0V682.4L453.4,682.4z"/>
<polygon class="st7" points="316.8,647.9 329.8,652.7 354.6,604.8 335.4,597.7 "/>
<path class="st4" d="M350.4,674.1l-40.9-15.2l0,0l5.9-15.8l0,0l26.5,9.9c7.9,2.9,12,11.8,9,19.7l0,0L350.4,674.1L350.4,674.1z"/>
<circle class="st7" cx="387.8" cy="297.9" r="26.2"/>
<path class="st4" d="M346.8,365.2c-0.8-24.2,24.6-40.9,46-29.6c2.7,1.4,30.8,25.3,31.9,40.2s3.2,39.2,3.2,39.2l29.7,221.4l-63.6-3.2
	l7.7-64.6l-41.3,65.7l-50.1-15.9l61.5-176.9C371.7,441.5,348.1,401.9,346.8,365.2z"/>
<path class="st4" d="M347.3,373.6l4.1,53.1c0.1,1.1,1,2,2.2,2h18c1.2,0,2.2-1,2.2-2.2c0-0.3-0.1-0.6-0.2-0.8l-22-53.1
	c-0.5-1.1-1.8-1.7-2.9-1.2C347.8,371.8,347.2,372.7,347.3,373.6z"/>
<path class="st7" d="M439.5,518.8c4-4.8,3.3-12-1.5-16c-0.5-0.4-1.1-0.8-1.7-1.1l-35.6-144.9l-22.7,9.8l42.3,140.1
	c-2.7,5.7-0.3,12.5,5.4,15.3C430.5,524.2,436.2,522.9,439.5,518.8L439.5,518.8z"/>
<path class="st4" d="M381.2,344c0,0-7.4,14.8,0,41.3s12.7,48.7,12.7,48.7s17-10.6,24.4-7.4S406.6,356,406.6,356S395,331.3,381.2,344
	z"/>
<path class="st4" d="M394,302c0.4-5.4,7.2-5.6,12.7-5.7s12,0.1,15.1-4.4c2-3,1.7-7.1,0-10.3s-4.5-5.6-7.2-8
	c-7-6.1-14.3-12.1-22.8-16s-18.4-5.5-27.1-2.3c-10.8,3.8-25.3,23.6-26.6,35s3.3,23,10.9,31.4s25.2,5.1,36.2,8.1
	c-6.7-9.5-2.3-26.7,8.5-31.2L394,302z"/>
</svg>
