<?xml version="1.0" encoding="utf-8"?>
<!-- Generator: Adobe Illustrator 24.2.3, SVG Export Plug-In . SVG Version: 6.00 Build 0)  -->
<svg version="1.1" id="af4a84a9-df7a-48d3-8a0e-abab0432828c"
	 xmlns="http://www.w3.org/2000/svg" xmlns:xlink="http://www.w3.org/1999/xlink" x="0px" y="0px" viewBox="0 0 812.3 733.9"
	 style="enable-background:new 0 0 812.3 733.9;" xml:space="preserve">
<style type="text/css">
	.st0{fill:#E6E6E6;}
	.st1{fill:#A0616A;}
	.st2{fill:#2F2E41;}
	.st3{fill:#3F3D56;}
	.st4{fill:#FFFFFF;}
	.st5{fill:#020202;}
	.st6{fill:#070707;}
</style>
<path class="st0" d="M722.8,560.4c-12.9,37.7-30.7,75-55.1,109.9c-0.5,0.8-1.1,1.6-1.6,2.3L593,650.2c0.3-0.8,0.7-1.6,1-2.5
	c22-54.5,154.6-387,138.9-455.6C734.4,197.7,783,384.1,722.8,560.4z"/>
<path class="st0" d="M681.8,674.6c-0.9,0.7-1.8,1.4-2.7,2l-54.8-16.8c0.6-0.6,1.4-1.3,2.3-2.2c14.1-13.6,55.9-54.2,96.3-97.3
	c43.4-46.3,85.3-95.3,89.5-116.4C811.5,448.8,786.9,595.1,681.8,674.6z"/>
<ellipse class="st0" cx="101" cy="723.9" rx="101" ry="10"/>
<path class="st1" d="M169.2,510.5L169.2,510.5c-7.2-0.6-12.5-6.9-11.9-14c0.1-0.7,0.2-1.4,0.3-2l9.1-37.3h16.6v40.4
	c0,7.2-5.8,13-13,13C169.9,510.6,169.5,510.5,169.2,510.5z"/>
<path class="st2" d="M156,264.8c-16.4,3.1-33.1,4.7-49.8,4.7c-15.8,0-31.7-1-47.4-3.2c0,0,2.4-89.2,47.4-87.7
	C154.5,180.5,156,264.8,156,264.8z"/>
<circle class="st2" cx="106.2" cy="181.1" r="14.2"/>
<polygon class="st1" points="134.6,690.5 154.4,692.9 165.8,538.9 131.1,549.2 "/>
<polygon class="st1" points="69.5,682.2 50.1,690.5 37.9,537.7 72.6,548 "/>
<circle class="st1" cx="105.9" cy="226.6" r="28.7"/>
<path class="st1" d="M132.3,350.1H85.7V281c11.8-7.7,7.6-21.5,0-36.7l41.5-1.2c-6.2,18.6-4,32.5,13.4,37.9L132.3,350.1z"/>
<path class="st2" d="M176.9,561.4c-23.2-7.4-40.4,1.3-53.7,20.5l-15-58.4l-22.1,48.2c-19.1-21-42.8-29.2-69.5-29.2
	c3.3-65,14.1-115.8,42.6-158c2.5-3.7,3.5-16.3,6.3-19.7l-17-53.4c1.3-9.1,7-17,15.2-21l25.5-12.5l21.3,35.5l19-38.7l31.9,10.4
	c5.5,1.8,9.2,6.8,9.3,12.6l-25.5,97.8C140.4,438.4,155.4,497.3,176.9,561.4z"/>
<path class="st2" d="M185.6,462.7l-24.5-3.2l-12.6-90.8l3.2-86.9l7.7,1.5c12.6,2.4,21.8,13.2,22.2,26L185.6,462.7z"/>
<path class="st1" d="M16.2,511.2L16.2,511.2c7,1.6,14-2.8,15.6-9.8c0.2-0.7,0.3-1.3,0.3-2l2.7-38.3l-15.8-5L6.7,494.6
	c-2.2,6.8,1.6,14.2,8.5,16.3C15.5,511,15.9,511.1,16.2,511.2z"/>
<path class="st2" d="M35.5,465.1l-19-4.7l25.9-147.9c1.6-9.1,8-16.6,16.8-19.5l0,0l6.3,63.2L35.5,465.1z"/>
<path class="st2" d="M82.3,219.8h46.1l1.7-9.3c1.6-9.1-4.4-17.7-13.5-19.4c-1-0.2-2.1-0.3-3.2-0.3l-17.3,0.2
	c-9.2,0.1-16.6,7.7-16.5,16.9c0,1.4,0.2,2.7,0.5,4L82.3,219.8z"/>
<path class="st2" d="M62.3,728L62.3,728c-6.9,0-12.9-4.6-14.7-11.3l-1.4-5.1c-0.3-1.2-0.4-2.4-0.3-3.7l2.6-24
	c4.9-6.1,12.1-7.6,22.4-2.8l6.3,28.2c1.8,8.2-3.3,16.4-11.6,18.2C64.6,727.9,63.4,728,62.3,728z"/>
<path class="st2" d="M147.6,728L147.6,728c-6.9,0-12.9-4.6-14.7-11.3l-1.4-5.1c-0.3-1.2-0.4-2.4-0.3-3.7l2.6-24
	c4.9-6.1,12.1-7.6,22.4-2.8l6.3,28.2c1.8,8.2-3.3,16.4-11.6,18.2C149.9,727.9,148.7,728,147.6,728z"/>
<circle class="st0" cx="108.6" cy="347.8" r="7.1"/>
<circle class="st0" cx="108.6" cy="377.8" r="7.1"/>
<circle class="st0" cx="108.6" cy="407.8" r="7.1"/>
<path id="bcf9023f-ac5b-481c-aaa4-352627f2cc6c" class="st3" d="M688.6,172.9h-4V63.4c0-35-28.4-63.4-63.4-63.4l0,0H389.1
	c-35,0-63.4,28.4-63.4,63.4v0v601c0,35,28.4,63.4,63.4,63.4c0,0,0,0,0,0h232.1c35,0,63.4-28.4,63.4-63.4c0,0,0,0,0,0V250.9h4
	L688.6,172.9z"/>
<path id="f7950315-d447-41b3-b140-1076b53a001f" class="st4" d="M623.7,16.5h-30.3c4.7,11.5-0.8,24.6-12.3,29.3
	c-2.7,1.1-5.6,1.7-8.5,1.7h-133c-12.4,0-22.5-10.1-22.5-22.5c0-2.9,0.6-5.8,1.7-8.5h-28.3c-26.1,0-47.3,21.2-47.3,47.3c0,0,0,0,0,0
	l0,0v600.1c0,26.1,21.2,47.3,47.3,47.3h0h233.2c26.1,0,47.3-21.2,47.3-47.3v0v0l0,0V63.8C671.1,37.7,649.9,16.5,623.7,16.5
	L623.7,16.5C623.7,16.5,623.7,16.5,623.7,16.5z"/>
<ellipse id="f890d8c3-e731-49cb-a2e5-5c59e9f60352" transform="matrix(0.1602 -0.9871 0.9871 0.1602 -197.3491 1031.5359)" class="st0" cx="507.5" cy="631.7" rx="26" ry="26"/>
<g id="a1a6c59b-3717-4dad-b370-97c9e621082a">
	<rect id="aadecade-068c-4f25-a9ef-29b7b9ecc005" x="363.4" y="330.5" class="st0" width="287.5" height="56.8"/>
	<path id="be47b05f-620a-4a83-9c0d-c2bf8bc76fef" class="st4" d="M369.5,381.1h275.2v-44.5H369.5V381.1z"/>
	<path id="a28d2100-c4d0-4925-85de-1e7d52571659" d="M393.6,341.5c9.4,0,17,7.6,17,17c0,9.4-7.6,17-17,17c-9.4,0-17-7.6-17-17
		C376.7,349.1,384.2,341.5,393.6,341.5L393.6,341.5z"/>
	<rect id="bf3352be-1ca2-4e23-bbaf-f2f5ef64af93" x="434.2" y="351.8" class="st0" width="167.3" height="3.7"/>
	<rect id="bb396d43-890f-415a-a911-0c113deb0c88" x="434.2" y="361.4" class="st0" width="167.3" height="3.7"/>
</g>
<g id="a76a8676-f787-4aac-bc26-4d28e625d812">
	<rect id="a3fed62c-a480-4fda-a6ab-9c7719a11d03" x="363.4" y="411.5" class="st0" width="287.5" height="56.8"/>
	<path id="b2013604-1388-480a-bf39-bc8d6d6f2c30" class="st4" d="M369.5,462.1h275.2v-44.5H369.5V462.1z"/>
	<circle id="a10785fe-0480-48e0-a209-79d56eb9fb83" class="st5" cx="393.6" cy="439.5" r="17"/>
	<rect id="e4ba10f0-0456-4e2c-9d9e-10f625ff54d2" x="434.2" y="432.8" class="st0" width="167.3" height="3.7"/>
	<rect id="a086a789-ddcc-4a0c-b196-f7973999ed5b" x="434.2" y="442.4" class="st0" width="167.3" height="3.7"/>
</g>
<g id="a5a5e7c6-2328-4bbd-a0bc-78368cb001e7">
	<rect id="be3c08ee-83a5-46f6-b550-c65a1a75b35b" x="363.4" y="492.5" class="st0" width="287.5" height="56.8"/>
	<path id="beee7471-5a7b-446e-b565-9b3273ba023a" class="st4" d="M369.5,543.1h275.2v-44.5H369.5V543.1z"/>
	<circle id="f8684faf-2b28-4db0-a7a9-e69102a88591" class="st6" cx="393.6" cy="520.5" r="17"/>
	<rect id="e7cf9a62-74c8-4968-991d-f63bde6d8d74" x="434.2" y="513.8" class="st0" width="167.3" height="3.7"/>
	<rect id="b57b1a7e-a030-4cfd-a852-c296d4f42a3d" x="434.2" y="523.4" class="st0" width="167.3" height="3.7"/>
</g>
<circle cx="507.1" cy="193.9" r="80"/>
</svg>
